<?xml version="1.0" encoding="utf-8"?>
<!-- Generator: Adobe Illustrator 18.0.0, SVG Export Plug-In . SVG Version: 6.00 Build 0)  -->
<!DOCTYPE svg PUBLIC "-//W3C//DTD SVG 1.1//EN" "http://www.w3.org/Graphics/SVG/1.1/DTD/svg11.dtd">
<svg version="1.1" id="Layer_1" xmlns="http://www.w3.org/2000/svg" xmlns:xlink="http://www.w3.org/1999/xlink" x="0px" y="0px"
	 viewBox="0 0 512.8 200" enable-background="new 0 0 512.8 200" xml:space="preserve">
<path fill="#FFFFFF" d="M340.2,90.9c-1.3,2.2-3.1,4.8-5.4,7.9c-2.4,3.2-4.8,6.4-7.3,9.5c-4,4.9-6.3,7.4-7,7.4
	c-0.3,0-0.5-0.1-0.6-0.4c-0.1-0.2-0.2-1.1-0.3-2.6L317,86.2l-17.5,28.9c-0.1,0.2-0.2,0.3-0.3,0.3c-0.1,0.1-0.3,0.1-0.4,0.1l-0.6-0.1
	l-0.1-0.4l-0.5-10.5c-0.1-2.3-0.3-4.8-0.5-7.3c-0.2-2.5-0.4-4.7-0.6-6.5c-0.6-5.2-1.2-8.3-1.9-9.5c-0.7-1.2-1.9-1.8-3.7-1.8
	c-0.3,0-0.7,0-1,0c-0.3,0-0.7,0-1.1,0.1v-1.2c1.2-0.2,2.3-0.4,3.3-0.6c1.1-0.2,2.2-0.5,3.5-0.7l4-1c1,0,1.9,4,2.9,12.1
	c0.5,4.4,1,9.4,1.4,15.1l16.6-26.4c0.1-0.2,0.3-0.4,0.4-0.6c0.2-0.2,0.4-0.2,0.6-0.2c0.2,0,0.4,0.1,0.5,0.3c0.1,0.2,0.1,0.4,0.2,0.8
	l2.9,30.6c0.2-0.3,1.8-2.3,4.7-6c2.9-3.7,4.4-5.7,4.6-6c2.1-3.1,3.6-5.4,4.3-7.1c0.5-1.1,0.7-2.1,0.7-3.1c0-0.4-0.1-0.8-0.2-1.1
	c-0.1-0.4-0.4-0.7-0.8-1.1l-1.3-1.2c-0.4-0.4-0.7-0.8-1-1.2c-0.3-0.4-0.4-1-0.4-1.5c0-0.7,0.2-1.4,0.7-2.2c0.5-0.7,1.4-1.1,2.7-1.1
	c1,0,2.1,0.4,3,1.3c1,0.8,1.4,2.2,1.4,4.1C343.6,83.8,342.5,86.9,340.2,90.9"/>
<path fill="#FFFFFF" d="M388.9,101.9h1.4c0.6,3.4,1.4,5.9,2.2,7.5c1.6,2.9,3.9,4.4,7,4.4c1.7,0,3.2-0.6,4.3-1.8
	c1.2-1.2,1.8-2.8,1.8-4.8c0-1.2-0.1-2.3-0.4-3c-0.3-0.8-0.7-1.5-1.1-2.2l-3.5-5.2c-2.1-3.2-3.4-5.3-4-6.3c-0.8-1.6-1.2-3.2-1.2-4.8
	c0-2.4,0.9-4.6,2.7-6.5c1.8-1.9,4.3-2.8,7.5-2.8c1.4,0,3,0.3,4.8,0.8c1.8,0.5,3,0.8,3.7,0.8c0.7,0,1.2-0.1,1.6-0.4
	c0.3-0.3,0.7-0.7,0.9-1.1h1.2l-1.8,12.1h-1.4c-0.4-2.8-0.9-4.8-1.7-6.2c-1.4-2.6-3.5-3.9-6.4-3.9c-1.2,0-2.3,0.4-3.3,1.2
	c-1,0.8-1.5,1.9-1.5,3.4c0,1.2,0.2,2.2,0.7,3c0.4,0.9,1.4,2.4,3,4.6l3,4.3c1.6,2.2,2.7,4,3.3,5.5c0.7,1.4,1,2.9,1,4.6
	c0,3.1-1.3,5.6-3.9,7.7c-2.6,2.1-5.7,3.1-9.3,3.1c-1.2,0-2.8-0.2-5-0.7c-2.1-0.5-3.4-0.7-3.7-0.7c-0.6,0-1,0.1-1.3,0.4
	c-0.3,0.2-0.5,0.6-0.7,1.1h-1.4L388.9,101.9z"/>
<path fill="#FFFFFF" d="M431.4,96.6c0.5-1.4,1-2.7,1.5-3.8c0.9-2.1,2.1-4.3,3.6-6.6c1.4-2,3-3.7,4.8-5.3c1.8-1.6,3.6-2.3,5.4-2.3
	c1,0,1.7,0.3,2.3,1c0.5,0.6,0.8,1.5,0.8,2.6c0,3-1.7,5.9-5.1,8.9C441.2,93.9,436.8,95.8,431.4,96.6 M422.3,103.4
	c0,3.9,1.1,7,3.4,9.1c2.3,2.1,4.9,3.2,7.9,3.2c4.2,0,8.4-1.5,12.7-4.5c2.4-1.7,4.2-3.3,5.5-5l-1.1-1c-2.6,2.1-4.5,3.6-5.9,4.4
	c-2.4,1.4-4.6,2.1-6.7,2.1c-2.2,0-4.2-0.7-5.8-2.1c-1.6-1.4-2.4-3.3-2.4-5.8c0-1,0.1-1.9,0.2-2.6c0.1-0.7,0.4-1.6,0.8-2.8l2.4-0.3
	c5.3-0.6,10.3-2.4,15-5.3c4.8-2.9,7.1-6.4,7.1-10.4c0-2-0.7-3.5-1.9-4.5c-1.3-1-3-1.5-5.3-1.5c-6,0-11.7,2.9-17.3,8.8
	C425.2,91,422.3,97.1,422.3,103.4"/>
<path fill="#FFC429" d="M57.7,113c7.3-0.3,7.6-2.3,7.6-8.8V66.6c0-6.4-1.2-7.3-7.6-7.8v-1.6h24.1v1.6c-6.6,0.5-7.6,1.6-7.6,7.8v16.8
	h26.3V66.6c0-6.4-1.2-7.3-7.6-7.8v-1.6H117v1.6c-6.6,0.5-7.6,1.6-7.6,7.8v38.5c0,5.7,0.9,7.4,7.6,7.8v1.6H92.9V113
	c7.3-0.3,7.6-2.3,7.6-8.8V87.3H74.2v17.9c0,5.7,0.9,7.4,7.6,7.8v1.6H57.7V113z"/>
<path fill="#FFC429" d="M127.2,87.8c1.4-7.6,4.8-10,9.5-10c6.9,0,7.7,5.8,8.3,10H127.2z M154.2,100.4c-2,3.2-5.7,9.1-13.5,9.1
	c-5.7,0-12.8-3.6-13.8-18.9h27c-1-11.4-7.1-15.9-15.3-15.9c-6.9,0-17.7,5.3-17.7,21.4c0,12.3,6.6,19.4,16.2,19.4
	c12.5,0,17.5-11.8,18.4-14.5L154.2,100.4z"/>
<path fill="#FFC429" d="M182.2,104c0,2.6-0.3,3.6-3,4.9c-0.8,0.4-3.5,1.6-5.4,1.6c-3.2,0-5.7-2.7-5.7-6.8v-0.2c0-3,1-7.8,14.1-12.2
	V104z M195.7,108.9c-1,0.8-2.1,1.6-3.9,1.6c-2.5,0-2.5-2.5-2.5-5V88.6c0-5.2,0-13.9-12.9-13.9c-10.1,0-14.1,6.2-14.1,9.6
	c0,1.4,1,3.8,3.7,3.8c2.3,0,3.9-1.9,3.9-3.7c0-0.8-0.4-2.1-0.4-3.4c0-2.7,3.3-4.3,6.2-4.3c2.6,0,6.7,1,6.7,7.2v5.3
	c-14.1,5.6-21.7,8.5-21.7,17.2c0,5.8,4.5,9,9.2,9c4.8,0,9.4-3.5,12.6-6.3c0.4,6.2,4.1,6.3,5.6,6.3c1.4,0,4.1-0.1,7.7-4.3V108.9z"/>
<path fill="#FFC429" d="M197.6,113.3c5.1-0.3,6.7-1.5,6.7-6.2V65.7c0-3.9-0.5-5.3-3.9-5.3c-1.1,0-1.9,0.1-3,0.2v-1.4
	c4.6-1.1,9.2-2.3,13.8-3.8l0.3,0.2v51.8c0,5,1.5,5.7,6.5,6v1.3h-20.5V113.3z"/>
<path fill="#FFC429" d="M242.1,78.4h-8.8v24.8c0,2.7,0,7.8,4.4,7.8c2.8,0,4.3-1.9,5.3-3l1.1,1c-2.1,3.7-6.2,6.6-10.2,6.6
	c-4.4,0-8-2.3-8-11V78.4h-4.6c-0.2-0.1-0.3-0.3-0.3-0.6c0-1,1.9-1.6,3.8-3.5c3.3-3.4,4.6-5.3,7.8-9.9c0.6,0,0.6,0.4,0.6,1.1v10.1
	h8.8V78.4z"/>
<path fill="#FFC429" d="M286.4,114.6H268v-1.3c4.3-0.4,5.9-0.9,5.9-7.6V88.6c0-5.8-1.9-9.2-6.7-9.2c-2.5,0-5.9,1.3-9.5,5.5v20.9
	c0,6.7,1.6,7.1,5.9,7.6v1.3h-18.7v-1.3c4.7-0.6,5.6-1.2,5.6-7.6V64.9c0-2.6,0-4.4-3.8-4.4c-0.5,0-1.4,0-1.6,0.1v-1.4
	c3.9-1.1,8.2-2.3,12.3-3.8l0.4,0.3v26.2h0.2c3-4.3,7.3-7.1,12.5-7.1c10.7,0,10.8,10.3,10.8,13.8v17.3c0,6.3,0.9,6.8,5.2,7.6V114.6z"
	/>
<path fill="#FFFFFF" d="M365.1,34.6c-3.1,0.8-3.6,3.9-4.4,8c-0.8,4.2-0.8,8.3,2.3,9.2c3.1,0.8,5.7-1.1,5.4-4.7
	c-0.3-3.6,0-7.8-1.3-9.2c-1.3-1.4,2.6,0.8,3.3,4.2c0.8,3.3,1,11.1-3.8,12.5c-4.9,1.4-6.9-0.6-8.2-5.3c-1.3-4.7,0.8-14.4,2.1-15.5
	C361.8,32.7,365.1,34.6,365.1,34.6"/>
<path fill="#FFFFFF" d="M363.8,151.6l10.8-26.9c0,0,4.9-2.5,5.4-5.8c0.5-3.3-2-19.6-10.5-26.5c-8.5-6.9-11.7-9-15.2-6.7
	c-2.3,1.5-3.1,7.2-1,10.5c2.1,3.3,15.2,14.1,16.7,19.1c1.5,5-4.9,4.2-5.9,8.3c-1,4.2-2.6,15-2.6,15l-2.6,11.1L363.8,151.6z"/>
<path fill="#FFFFFF" d="M360.5,105.3l4.1,4.2c0,0-6.2,13-8,15C354.8,126.4,360.7,110,360.5,105.3"/>
<path fill="#FFC429" d="M404.2,28.7c0,0-10.9,9.1-18.6,20.1c-7.7,11-13.6,22.3-13.6,22.3l3.9-15.2c0,0,10.1-15.9,12.1-17.4
	C389.9,37.1,404.2,28.7,404.2,28.7"/>
<path fill="#FFC429" d="M364.3,34.8c0,0-4.3,8.1-4.3,8.8c0,0.7,0.2,8.3,2,9.1c1.8,0.7,5.2-2,6.3-4.2
	C369.5,46.4,367.7,35.3,364.3,34.8"/>
<path fill="#FFC429" d="M357.9,63c0,0-0.5,13-1.1,15.4c-0.7,2.5-0.5,4.2-0.5,4.2l13.4,6.1l0.5-4.2L357.9,63z"/>
<path fill="#FFFFFF" d="M404.4,29.1c0,0-9.1,4.8-16,9.3c-6.9,4.4-8.7,9.7-13.1,21.1c-4.4,11.4-3.6,24.4-3.9,25.2
	c-0.3,0.8-10.8-4.7-11.6-6.7c-0.8-1.9,0.5-7.2,0.5-7.2s-1-5.5-2.6-9.1c-1.5-3.6-16.5-14.1-16.5-14.1s-2.3-6.9,1-4.4
	c3.3,2.5,18.3,11.3,19.1,13.8c0.8,2.5,3.1,5,8.2-2.2c5.1-7.2,12.6-15.2,18.8-18.6c6.2-3.3,15.7-9.4,15.7-9.4l0.6,1.1L404.4,29.1z"/>
<path fill="#FFC429" d="M357.3,101.9l-7.5,24.7l-3.4,16.9l3.6,0.7c0,0,5.4-17.9,5.4-18.6c0-0.7,4.5-20.6,4.5-20.6L357.3,101.9z"/>
<polygon fill="#FFFFFF" points="61.2,128.6 71.3,128.6 71.3,131.6 66,131.6 66,134.1 71,134.1 71,137 66,137 66,142.5 61.2,142.5 
	"/>
<rect x="73.7" y="128.6" fill="#FFFFFF" width="4.9" height="13.9"/>
<polygon fill="#FFFFFF" points="81.8,128.6 86,128.6 93,135.8 92.8,128.6 97.7,128.6 97.7,142.5 93.5,142.5 86.5,135.4 86.8,142.5 
	81.8,142.5 "/>
<path fill="#FFFFFF" d="M105.8,139.2v-7.3h1.3c2.6,0,3.5,1.8,3.5,3.7c0,2.5-1.1,3.7-3.5,3.7H105.8z M100.9,142.5h7.9
	c4.7,0,6.7-3.6,6.7-6.8c0-3.2-2.2-7.1-7.6-7.1h-7V142.5z"/>
<rect x="118.1" y="128.6" fill="#FFFFFF" width="4.9" height="13.9"/>
<polygon fill="#FFFFFF" points="126.2,128.6 130.4,128.6 137.4,135.8 137.1,128.6 142.1,128.6 142.1,142.5 137.9,142.5 130.9,135.4 
	131.1,142.5 126.2,142.5 "/>
<path fill="#FFFFFF" d="M158.3,142.1c-1.6,0.4-3.8,0.7-5.5,0.7c-6,0-8.1-4-8.1-7c0-4.3,3.4-7.3,8.4-7.3c1.7,0,3.3,0.3,4.9,0.9v3.5
	c-1.4-0.8-2.8-1.2-4.1-1.2c-2.5,0-4.3,1.6-4.3,4c0,2.5,1.9,4,4.9,3.6v-1.6h-1.7v-2.9h5.5V142.1z"/>
<polygon fill="#FFFFFF" points="165.9,132.1 165.9,128.6 179.4,128.6 179.4,132.1 175.1,132.1 175.1,142.5 170.2,142.5 170.2,132.1 
	"/>
<polygon fill="#FFFFFF" points="181.7,128.6 186.5,128.6 186.5,133.7 191.9,133.7 191.9,128.6 196.8,128.6 196.8,142.5 191.9,142.5 
	191.9,137.3 186.5,137.3 186.5,142.5 181.7,142.5 "/>
<polygon fill="#FFFFFF" points="199.9,128.6 210.4,128.6 210.4,131.6 204.8,131.6 204.8,134 209.9,134 209.9,137 204.8,137 
	204.8,139.6 210.4,139.6 210.4,142.5 199.9,142.5 "/>
<path fill="#FFFFFF" d="M225,140.4v-3.9h1.6c1.6,0,2.4,0.7,2.4,1.9c0,1.4-0.9,2-2.5,2H225z M220.1,142.5h9.3c2.6,0,4.3-1.7,4.3-4
	c0-1.8-0.9-3-3-3.7c1.4-0.6,2.2-1.6,2.2-2.9c0-1.6-1.1-3.4-4.6-3.4h-8.1V142.5z M225,134.4v-3.7h1.4c1.6,0,2.2,0.8,2.2,1.8
	c0,1-0.6,1.8-2.2,1.8H225z"/>
<path fill="#FFFFFF" d="M241.8,137.8l2.1-5.5l2.1,5.5H241.8z M235,142.5h4.8l0.9-2.3h6.3l0.9,2.3h4.8l-6.3-13.9h-5.1L235,142.5z"/>
<polygon fill="#FFFFFF" points="254.7,128.6 259.6,128.6 259.6,139.1 265.1,139.1 265.1,142.5 254.7,142.5 "/>
<path fill="#FFFFFF" d="M272.4,137.8l2.1-5.5l2.1,5.5H272.4z M265.6,142.5h4.8l0.9-2.3h6.3l0.9,2.3h4.8l-6.3-13.9h-5.1L265.6,142.5z
	"/>
<polygon fill="#FFFFFF" points="285.4,128.6 289.5,128.6 296.6,135.8 296.3,128.6 301.3,128.6 301.3,142.5 297.1,142.5 290,135.4 
	290.3,142.5 285.4,142.5 "/>
<path fill="#FFFFFF" d="M317,141.5c-1.4,0.8-3.3,1.2-5.2,1.2c-5.8,0-7.8-3.9-7.8-7.1c0-4.1,3-7.2,8.1-7.2c1.8,0,3.5,0.3,4.8,0.9v4.1
	c-1.4-0.9-2.6-1.3-4-1.3c-2.4,0-4,1.3-4,3.4c0,2.1,1.5,3.4,4,3.4c1.4,0,2.6-0.3,4.1-1.2V141.5z"/>
<polygon fill="#FFFFFF" points="320.1,128.6 330.6,128.6 330.6,131.6 325,131.6 325,134 330.1,134 330.1,137 325,137 325,139.6 
	330.7,139.6 330.7,142.5 320.1,142.5 "/>
<polygon fill="#FFFFFF" points="455.4,109 453.5,109 453.5,108.3 458.1,108.3 458.1,109 456.3,109 456.3,114.2 455.4,114.2 "/>
<polygon fill="#FFFFFF" points="459,108.3 460.4,108.3 462.3,113.2 464.1,108.3 465.5,108.3 465.5,114.2 464.7,114.2 464.7,109.1 
	464.6,109.1 462.7,114.2 461.8,114.2 459.8,109.1 459.8,109.1 459.8,114.2 459,114.2 "/>
</svg>
